<?xml version="1.0" encoding="UTF-8"?>
<svg id="Layer_1" data-name="Layer 1" xmlns="http://www.w3.org/2000/svg" viewBox="0 0 434.83 49.54">
  <path d="m42.44,45.37c-.48,0-.94-.01-1.39,0-1.89.05-3.78.16-5.67.16-1.17,0-2.34-.15-3.5-.21-.47-.02-.48-.32-.49-.65-.02-.92-.02-1.84-.06-2.76-.06-1.65-.23-3.3-.18-4.95.09-2.65.26-5.29.52-7.93.13-1.33.55-2.62.82-3.93.2-.95.35-1.9.55-2.85.15-.71.36-1.41.51-2.12.07-.33.07-.68.1-1.02-.06-.01-.12-.03-.19-.04-.31.73-.62,1.46-.93,2.19-.87,2.02-1.71,4.04-2.61,6.04-.49,1.09-1.08,2.14-1.61,3.22-.43.89-.8,1.81-1.24,2.69-.39.79-.83,1.56-1.25,2.34-.14.25-.31.5-.4.77-.24.71-.74.83-1.42.81-1.62-.06-3.24-.04-4.86-.1-.67-.03-1.36-.11-1.99-.31-.31-.1-.57-.5-.74-.83-.67-1.27-1.28-2.57-1.94-3.84-.45-.86-1.01-1.67-1.43-2.55-.5-1.05-.9-2.16-1.35-3.23-.24-.57-.53-1.11-.76-1.68-.24-.59-.44-1.2-.67-1.79-.32-.82-.65-1.64-.98-2.46-.17-.43-.36-.85-.54-1.27-.06.02-.12.04-.17.05,0,.21-.04.42,0,.62.17.8.35,1.6.55,2.39.25,1.01.51,2.02.75,3.04.12.52.22,1.04.3,1.57.14.88.29,1.76.38,2.65.51,5.04.12,10.1.23,15.14,0,.28.04.54-.38.6-2.29.3-4.57.55-6.88.45-.79-.03-1.58-.15-2.36-.25-.11-.01-.24-.12-.32-.22C.31,44.43,0,43.68,0,42.78c.02-5.18,0-10.36.01-15.54,0-6.62.02-13.24.04-19.86,0-.89.1-1.78.22-2.66.02-.19.27-.44.46-.5,2.37-.72,4.81-.55,7.23-.45.68.03,1.37.19,2.04.35.23.06.49.25.61.46.81,1.4,1.61,2.82,2.37,4.25.55,1.04,1.01,2.13,1.57,3.18.66,1.25,1.42,2.45,2.07,3.7.78,1.5,1.47,3.05,2.22,4.56.67,1.37,1.37,2.72,2.12,4.2.36-.47.73-.82.95-1.25.8-1.48,1.55-2.98,2.31-4.48.77-1.52,1.53-3.04,2.28-4.56.67-1.35,1.26-2.75,1.98-4.07.9-1.63,1.9-3.2,2.86-4.8.26-.43.5-.89.8-1.29.13-.17.41-.3.63-.3,1.54-.01,3.08-.02,4.62.03,1.51.05,3.01.18,4.52.25.38.02.57.12.57.56-.01,13.5,0,26.99-.01,40.49,0,.06-.01.12-.04.3Z" style="fill: currentColor; stroke-width: 0px;"/>
  <path d="m386.44,45.35c-.56,0-.99,0-1.43,0-2.45.06-4.9.17-7.34.18-1.13,0-2.3-.23-3.23-.86-.69-.47-1.16-1.29-1.69-1.99-.26-.33-.46-.71-.63-1.1-.76-1.69-1.45-3.41-2.25-5.08-.5-1.05-1.08-2.07-1.72-3.05-.24-.37-.7-.65-1.11-.84-.81-.37-1.67-.66-2.51-.97-.46-.17-.92-.32-1.44-.5-.1,4.77-.2,9.47-.3,14.23-.55,0-.98,0-1.42,0-2.21.06-4.42.14-6.63.16-.89,0-1.78-.09-2.67-.2-.16-.02-.4-.32-.41-.5-.07-.88-.05-1.76-.1-2.64-.52-8.84-.1-17.7-.22-26.54-.03-2.3-.01-4.6.04-6.9.03-1.43.15-2.86.27-4.29.01-.17.3-.42.48-.44.59-.07,1.2-.05,1.8-.07,2.75-.08,5.5-.19,8.25-.23,3-.03,6-.06,9,.06,1.51.06,3,.49,4.51.7,1.17.17,2.24.61,3.22,1.2,1.19.72,2.33,1.51,3.21,2.66.86,1.13,1.62,2.3,2.13,3.6.32.82.59,1.69.72,2.56.19,1.29.28,2.6.34,3.9.09,1.93-.42,3.75-1.02,5.56-.39,1.18-1.11,2.13-1.92,3.02-.79.87-1.68,1.66-2.53,2.48-.37.36-.67.7-.28,1.29.55.85,1.01,1.75,1.49,2.64,1.01,1.89,2.05,3.76,3,5.68.64,1.28,1.15,2.62,1.71,3.94.19.45.41.88.56,1.34.09.27.07.58.11.96Zm-23.47-27.46c0,1.16,0,2.32,0,3.48,0,.35.04.62.51.6,2.82-.11,5.65-.19,8.47-.3.16,0,.41-.14.45-.26.22-.69.53-1.39.55-2.09.04-1.24-.06-2.49-.2-3.72-.13-1.13-.48-1.37-1.62-1.38-.14,0-.28,0-.42-.01-2.39-.11-4.78-.22-7.17-.34-.44-.02-.59.17-.58.61.02,1.14,0,2.28,0,3.42Z" style="fill: currentColor; stroke-width: 0px;"/>
  <path d="m119.19,25.63c0-6.87-.02-12.35.02-17.83,0-.97.22-1.93.35-2.89.06-.41.29-.6.74-.7,3.38-.71,6.79-.47,10.19-.46,1.38,0,2.76-.05,4.14.02,2.03.1,4.06.23,6.07.48.98.12,1.91.55,2.87.84.3.09.62.12.91.25,1.08.49,2.21.9,3.19,1.54,1.83,1.19,3.39,2.71,4.43,4.66.44.82.73,1.73,1.03,2.62.3.89.54,1.81.77,2.72.07.28.04.59.07.89.38,3.96.25,7.94.19,11.9-.02,1.4-.14,2.84-.48,4.19-.43,1.68-1.09,3.31-2.16,4.73-.53.7-.97,1.47-1.58,2.09-.67.67-1.46,1.24-2.24,1.78-.72.49-1.48.93-2.26,1.32-.52.26-1.08.48-1.64.61-1.25.28-2.51.54-3.78.72-1.06.15-2.14.22-3.21.25-3.65.09-7.3.16-10.95.21-1.84.02-3.68-.02-5.52-.02-.34,0-.58-.05-.62-.45-.09-.85-.21-1.69-.29-2.54-.58-6.1-.08-12.22-.23-16.93Zm11.64-.86s-.02,0-.03,0c0,3.34,0,6.68,0,10.02,0,.71.1.82.8.79,1.07-.05,2.14-.12,3.21-.22,1.93-.17,3.83-.45,5.68-1.1.48-.17.89-.28,1.01-.84.06-.28.2-.54.26-.81.27-1.23.73-2.46.75-3.69.06-3.48.36-6.96-.24-10.44-.18-1.06-.49-2.03-1.25-2.71-.93-.84-2.1-1.27-3.34-1.52-1.94-.4-3.89-.35-5.85-.35-.93,0-1.01.08-1.01,1.04,0,3.28,0,6.56,0,9.84Z" style="fill: currentColor; stroke-width: 0px;"/>
  <path d="m49.96,24.43c0-6.28,0-12.56,0-18.84,0-.45.08-.91.19-1.35.03-.12.32-.24.5-.25.94-.03,1.88-.03,2.82-.04,4.39-.06,8.78-.2,13.16-.15,1.73.02,3.46.42,5.18.73,1.28.23,2.55.54,3.81.87.58.15,1.19.35,1.67.69,1.07.77,2.11,1.59,3.08,2.48.97.9,1.9,1.86,2.4,3.14.32.83.75,1.62,1.04,2.46.84,2.46.94,5.02.95,7.59,0,3.04-.03,6.08-.12,9.11-.05,1.71-.5,3.34-1.12,4.94-.85,2.21-2.12,4.1-3.9,5.67-1.19,1.04-2.52,1.86-3.99,2.41-1.04.39-2.16.58-3.22.91-1.59.5-3.23.59-4.88.61-.71,0-1.42.17-2.13.17-3.92.01-7.84,0-11.76-.02-.91,0-1.83-.07-2.72-.24-.29-.05-.66-.48-.71-.79-.18-.97-.3-1.96-.31-2.94-.02-4.14.01-8.28.02-12.42,0-1.58,0-3.16,0-4.74.01,0,.02,0,.04,0Zm11.36.17s.02,0,.03,0c0,3.38,0,6.75,0,10.13,0,.74.14.9.88.85,1.85-.11,3.7-.19,5.53-.42,1.5-.19,2.91-.71,4.06-1.76.1-.09.21-.16.28-.26.87-1.27,1.04-2.79,1.07-4.22.06-3.1.35-6.22-.2-9.31-.15-.86-.29-1.74-.6-2.54-.42-1.08-1.12-2.05-2.28-2.38-1.17-.34-2.4-.54-3.62-.68-1.48-.16-2.98-.2-4.47-.28-.49-.02-.7.22-.69.73.02,3.38,0,6.75,0,10.13Z" style="fill: currentColor; stroke-width: 0px;"/>
  <path d="m162.52,23.84c0-5.04-.04-10.08.03-15.12.02-1.45.34-2.9.57-4.35.02-.15.41-.33.64-.34,2.43-.12,4.85-.29,7.28-.31,6.64-.04,13.28,0,19.92,0,.9,0,1.18.26,1.2,1.19.04,2.64.06,5.28.08,7.91,0,.94-.2,1.11-1.12,1.11-5.36.03-10.72.05-16.07.08-.73,0-.79.06-.79.79,0,1.2.02,2.4-.01,3.6-.02.55.17.73.72.72,2.56-.02,5.12-.04,7.68,0,1.49.02,3,.03,4.46.27,1.38.23,1.91.27,2.03,2.02.02.24.03.48.04.72.09,2.18,0,4.36.02,6.53,0,.5-.11.74-.71.74-4.51.05-9.02.16-13.52.21-.57,0-.72.21-.71.73.01,1.5,0,3-.03,4.5-.01.58.35.52.71.52,3.86,0,7.72-.02,11.58.01,1.91.02,3.82.14,5.72.21.38.01.54.17.54.55,0,2.84,0,5.67,0,8.51,0,.48-.24.68-.74.71-8.55.47-17.1.17-25.65.21-1.03,0-2.06-.12-3.09-.23-.14-.01-.27-.24-.39-.38-.03-.03,0-.12,0-.18-.45-5.92-.33-11.85-.34-17.77,0-1.06,0-2.12,0-3.18Z" style="fill: currentColor; stroke-width: 0px;"/>
  <path d="m328.79,45.58c-3.26,0-6.52.02-9.78-.01-1.03,0-2.06-.13-3.09-.24-.63-.07-.96-.46-1.08-1.07-.37-1.85-.27-3.73-.27-5.6,0-10.52,0-21.03.04-31.55,0-.83.31-1.69.63-2.47.13-.3.69-.42,1.07-.62.08-.04.2-.04.29-.04,3.75-.08,7.5-.17,11.25-.23,2.64-.04,5.28-.02,7.92-.02,1.88,0,3.76-.04,5.63.04.75.03,1.49.34,2.23.54.11.03.26.15.29.26.11.47.22.96.26,1.44.09.98.22,1.98.17,2.96-.07,1.44-.27,2.88-.45,4.32-.06.48-.42.6-.88.6-2.72,0-5.44.04-8.16.05-2.6,0-5.2,0-7.8,0-.74,0-.79.05-.79.78,0,1.24,0,2.48,0,3.72,0,.7.12.82.85.82.52,0,1.04,0,1.56,0,3.22.03,6.44.05,9.65.09.64,0,1.28.06,1.92.06.34,0,.52.14.55.48.09,1.2.24,2.41.27,3.61.04,1.64-.03,3.28-.02,4.93,0,.48-.16.71-.63.75-.65.06-1.3.18-1.96.2-3.79.08-7.58.15-11.38.21-.81.01-.81,0-.82.79,0,1.4,0,2.8,0,4.2,0,.73.04.77.8.77,3.58,0,7.15-.03,10.73.01,1.99.03,3.98.17,5.97.28.61.03.59.66.7,1.01.22.66.27,1.39.33,2.09.17,1.92-.08,3.84-.08,5.77,0,.7-.17.83-.84.84-.94,0-1.88,0-2.82.02-4.09.09-8.18.19-12.26.29,0-.03,0-.06,0-.1Z" style="fill: currentColor; stroke-width: 0px;"/>
  <path d="m414.78,17.72c.81-1.32,1.61-2.55,2.32-3.83.68-1.21,1.25-2.49,1.89-3.72.42-.82.87-1.63,1.34-2.42.53-.9,1.16-1.75,1.65-2.67.46-.87,1.26-.94,2.05-1.05,2.21-.33,4.44-.38,6.67-.27,1.25.06,2.5.17,3.74.28.34.03.51.11.27.56-.76,1.42-1.41,2.9-2.14,4.34-.34.66-.74,1.3-1.12,1.94-.85,1.45-1.72,2.89-2.57,4.33-.78,1.33-1.53,2.67-2.32,3.98-.5.83-1.04,1.63-1.55,2.45-.71,1.15-1.39,2.32-2.09,3.47-.46.76-1,1.48-1.41,2.26-.62,1.15-1.22,2.26-1.16,3.71.13,3.11.04,6.24.04,9.36,0,.92,0,1.84-.06,2.76-.02.41-.12.83-.28,1.21-.24.57-.64.92-1.35.94-2.19.04-4.38.19-6.56.19-.81,0-1.63-.28-2.43-.48-.18-.04-.42-.25-.45-.41-.15-.71-.29-1.43-.34-2.15-.11-1.61-.23-3.21-.23-4.82,0-1.65.2-3.3.16-4.95-.04-1.37-.2-2.77-.52-4.1-.18-.78-.75-1.48-1.17-2.21-.92-1.6-1.84-3.19-2.78-4.78-1.23-2.08-2.49-4.15-3.73-6.23-1.13-1.91-2.28-3.81-3.36-5.75-.9-1.61-1.71-3.26-2.55-4.89-.29-.56-.17-.74.46-.76.94-.03,1.88-.06,2.82-.09,1.91-.06,3.82-.17,5.72-.16,1,0,2.01.2,3,.35.18.03.4.2.5.36.93,1.44,1.9,2.86,2.72,4.35,1.18,2.13,2.24,4.33,3.38,6.48.41.78.9,1.52,1.43,2.4Z" style="fill: currentColor; stroke-width: 0px;"/>
  <path d="m295.21,0c0,1.4.01,2.74-.02,4.07,0,.15-.28.32-.46.42-.13.07-.31.01-.47.01-8.66,0-17.32.02-25.98-.02-1.59,0-3.11.19-4.49.94-1.58.86-2.69,2.19-2.76,4.06-.09,2.39-.06,4.79-.07,7.19-.02,3.5-.04,7-.05,10.5,0,.58.05,1.16.06,1.74.03,3.86.04,7.72.11,11.58,0,.45.24.98.53,1.32.68.78,1.43,1.5,2.21,2.18.3.26.75.47,1.14.5,1.95.14,3.9.26,5.85.3,4.21.09,8.42.16,12.63.19,1.33.01,2.66-.16,3.99-.17,1.17,0,2.34.18,3.51.16,1.65-.03,3.31-.09,4.95-.27,2.26-.26,3.93-1.48,4.9-3.53.3-.62.37-1.37.44-2.08.09-.85.11-1.71.11-2.57,0-6.96,0-13.92,0-20.88q0-.88.9-.88c1.04,0,2.08.02,3.12,0,.5-.02.65.15.65.65-.02,3.9,0,7.8,0,11.7,0,3.38.02,6.76-.01,10.14,0,1.18-.04,2.37-.23,3.52-.24,1.44-.75,2.79-1.62,4.02-1.07,1.5-2.33,2.73-3.99,3.52-.67.32-1.39.56-2.12.68-1.13.19-2.28.33-3.42.34-7.25.09-14.5.14-21.74.2-1.04,0-2.08.03-3.12,0-1.53-.06-3.07-.09-4.59-.27-2.56-.29-4.57-1.62-6.28-3.51-1.67-1.85-2.53-3.94-2.46-6.46.04-1.48-.07-2.96-.1-4.43-.06-2.85-.14-5.7-.15-8.56,0-1.97.14-3.94.14-5.92,0-2.57-.18-5.15-.12-7.72.04-1.77.23-3.55.56-5.28.24-1.24.81-2.41,1.68-3.39.46-.51.9-1.03,1.38-1.51.94-.91,2.04-1.49,3.27-1.99C264.33,0,265.57,0,266.85,0c9.18,0,18.36,0,27.54,0,.24,0,.48,0,.83,0Z" style="fill: currentColor; stroke-width: 0px;"/>
  <path d="m211.1,19.67c0,4.92,0,9.84,0,14.76,0,.91.04.94.95.94,4.84,0,9.68,0,14.52,0,.89,0,.93.06.98.95.1,2,.25,4.01.29,6.01.02.82-.13,1.66-.33,2.46-.06.24-.56.5-.88.53-1.32.14-2.65.25-3.98.26-6.28.02-12.56.01-18.83-.02-1.23,0-2.46-.15-3.7-.2-.43-.02-.4-.29-.41-.57-.04-2.26-.07-4.52-.14-6.77-.03-.99-.16-1.97-.18-2.96,0-.59.18-1.18.18-1.76.01-5.5.02-11,0-16.5,0-.97-.21-1.94-.18-2.91.11-3.22.28-6.44.43-9.66.02-.37.17-.52.56-.51,2.54.03,5.08.02,7.62.06.87.01,1.74.14,2.61.19.36.02.49.18.49.53,0,.84,0,1.68,0,2.52,0,4.22,0,8.44,0,12.66,0,0,0,0-.01,0Z" style="fill: currentColor; stroke-width: 0px;"/>
  <path d="m236.41,24.87c0-5.56-.02-11.12.01-16.68,0-1.11.15-2.22.29-3.32.03-.22.28-.55.48-.59,1.14-.23,2.29-.46,3.44-.56,1.05-.09,2.12-.09,3.18,0,1.18.1,2.36.3,3.52.54.2.04.44.44.48.7.66,4.51.29,9.05.32,13.57.03,4.84.03,9.68.04,14.52,0,2.9,0,5.8-.05,8.7-.02.97-.15,1.94-.34,2.89-.11.57-.74.61-1.19.7-2.33.47-4.69.23-7.03.23-.71,0-1.44-.08-2.13-.25-.52-.13-.74-.64-.77-1.16-.1-1.59-.23-3.17-.24-4.76-.03-4.84-.01-9.68-.01-14.52Z" style="fill: currentColor; stroke-width: 0px;"/>
  <path d="m263.69,22.64c1.12-1.14,2.15-2.2,3.26-3.33.49.48.89.84,1.26,1.23,1.48,1.59,2.97,3.18,4.43,4.79,1.31,1.43,2.59,2.88,3.88,4.34.34.38.62.81.94,1.21.27.33.56.33.82,0,.87-1.13,1.71-2.28,2.6-3.41.99-1.26,2.02-2.49,3.03-3.73.73-.89,1.47-1.77,2.19-2.67.9-1.13,1.76-2.29,2.66-3.42.88-1.12,1.78-2.21,2.66-3.32.88-1.1,1.75-2.21,2.62-3.32,1.24-1.56,2.48-3.12,3.72-4.67.75-.94,1.5-1.88,2.26-2.81.44-.54.89-1.08,1.35-1.61.32-.37.71-.3,1.09-.1.29.16.58.31.84.51.49.37.97.77,1.45,1.15.1.08.2.18.32.23.47.18.56.5.26.87-.64.81-1.24,1.64-1.89,2.44-.52.64-1.1,1.23-1.61,1.88-.56.69-1.06,1.42-1.61,2.12-.57.73-1.18,1.45-1.76,2.18-.93,1.17-1.84,2.36-2.78,3.52-.96,1.19-1.97,2.36-2.92,3.56-.94,1.18-1.85,2.4-2.78,3.59-1.33,1.72-2.66,3.45-4.01,5.16-.56.71-1.2,1.37-1.77,2.08-.54.68-1.03,1.39-1.57,2.08-.67.85-1.37,1.68-2.04,2.54-.69.89-1.35,1.8-2.04,2.68-.24.3-.56.26-.8-.01-.98-1.09-1.95-2.2-2.93-3.29-.66-.74-1.33-1.48-1.99-2.22-1.24-1.41-2.48-2.83-3.73-4.23-.65-.73-1.34-1.42-1.99-2.15-1.12-1.25-2.23-2.5-3.42-3.85Z" style="fill: currentColor; stroke-width: 0px;"/>
  <path d="m102.45,25.07c2.28,0,4.56-.07,6.84.04.73.03,1.44.52,2.14.85.15.07.25.37.27.57.13,1.21.36,2.42.32,3.62-.04,1.26-.31,2.52-.57,3.76-.14.7-.85.83-1.41.87-2.06.13-4.12.17-6.19.24-1.1.04-2.2.08-3.29.08-1.14,0-2.28-.03-3.41-.09-.89-.04-1.77-.14-2.66-.23-.43-.04-1.21-.96-1.21-1.53-.02-2.14-.03-4.28,0-6.42,0-.76.62-1.44,1.37-1.52,1.28-.13,2.57-.22,3.85-.26,1.32-.04,2.64,0,3.96,0,0,0,0,.01,0,.02Z" style="fill: currentColor; stroke-width: 0px;"/>
</svg>